<svg width="23" height="19" viewBox="0 0 23 19" fill="none" xmlns="http://www.w3.org/2000/svg">
<path fill-rule="evenodd" clip-rule="evenodd" d="M8.90048 6.36156C9.04254 6.16132 9.24175 5.9985 9.48682 5.9009L16.0544 3.25146C16.7357 2.97675 17.5007 3.30498 17.776 3.98265L20.7079 11.2546C20.9826 11.9359 20.6543 12.701 19.9767 12.9762L13.4091 15.6256C12.7278 15.9003 11.9627 15.5721 11.6875 14.8944C11.3529 14.0652 11.6423 14.9027 8.90048 6.36156Z" fill="white"/>
<path fill-rule="evenodd" clip-rule="evenodd" d="M10.6586 5.42738L9.48665 5.90088C9.24158 5.99848 9.04237 6.16129 8.90031 6.36154C11.805 15.414 11.7039 14.9335 11.6874 14.8944C11.8314 15.2525 12.111 15.5086 12.4419 15.636C12.4967 15.5593 12.5459 15.4708 12.5879 15.3813L15.3581 8.86237C15.6443 8.18681 15.3314 7.41204 14.6594 7.12632L10.6586 5.42738Z" fill="white"/>
<path fill-rule="evenodd" clip-rule="evenodd" d="M5.48871 4.91099L12.7074 7.9781C13.3829 8.26433 13.6958 9.0391 13.406 9.71415L10.6359 16.2331C10.3496 16.9086 9.57538 17.2179 8.89982 16.9317L1.68118 13.8646C1.00562 13.5784 0.696308 12.8041 0.982535 12.1285L3.75267 5.60963C4.03889 4.93407 4.81316 4.62476 5.48871 4.91099Z" fill="white"/>
<path fill-rule="evenodd" clip-rule="evenodd" d="M16.652 6.9265C16.482 7.32474 16.0185 7.51269 15.6203 7.34269C14.6607 6.93562 15.2762 5.48778 16.2358 5.89484C16.6376 6.06535 16.822 6.52827 16.652 6.9265Z" fill="white"/>
<path fill-rule="evenodd" clip-rule="evenodd" d="M14.2558 12.5656C14.0858 12.9638 13.6223 13.1518 13.2241 12.9818C12.8223 12.8113 12.6379 12.3484 12.8079 11.9501C12.9779 11.5519 13.4413 11.3639 13.8396 11.5339C14.2378 11.7039 14.4258 12.1674 14.2558 12.5656Z" fill="white"/>
<path fill-rule="evenodd" clip-rule="evenodd" d="M7.48954 11.6513C7.08829 11.815 6.6278 11.6179 6.46412 11.2166C6.30044 10.8154 6.49758 10.3549 6.89883 10.1912C7.30369 10.028 7.76058 10.2247 7.92426 10.6259C8.08743 11.0308 7.8908 11.4877 7.48954 11.6513Z" fill="white"/>
<path fill-rule="evenodd" clip-rule="evenodd" d="M10.3318 10.503C9.92697 10.6662 9.47008 10.4696 9.3064 10.0683C9.14323 9.66344 9.33987 9.20655 9.74112 9.04287C10.146 8.8797 10.6029 9.07633 10.7665 9.47759C10.9302 9.87884 10.7331 10.3393 10.3318 10.503Z" fill="white"/>
<path fill-rule="evenodd" clip-rule="evenodd" d="M4.64799 12.7962C4.24314 12.9593 3.78624 12.7627 3.62256 12.3615C3.45939 11.9566 3.65603 11.4997 4.05728 11.336C4.45854 11.1723 4.91903 11.3695 5.08271 11.7707C5.24639 12.172 5.04925 12.6325 4.64799 12.7962Z" fill="white"/>
<path fill-rule="evenodd" clip-rule="evenodd" d="M7.61255 14.0589C7.44938 13.654 7.64602 13.1972 8.04727 13.0335C8.44853 12.8698 8.90902 13.0669 9.0727 13.4682C9.23638 13.8694 9.03924 14.3299 8.63798 14.4936C8.23313 14.6568 7.77623 14.4602 7.61255 14.0589Z" fill="white"/>
<path fill-rule="evenodd" clip-rule="evenodd" d="M5.31995 8.37134C5.15678 7.96648 5.35341 7.50959 5.75467 7.34591C6.15592 7.18223 6.61642 7.37937 6.7801 7.78063C6.94377 8.18188 6.74663 8.64238 6.34538 8.80606C5.94052 8.96923 5.48363 8.77259 5.31995 8.37134Z" fill="white"/>
<path fill-rule="evenodd" clip-rule="evenodd" d="M19.9767 12.9762C20.6579 12.7015 20.9831 11.9323 20.7079 11.2546L17.776 3.98266C17.5885 3.51563 17.1649 3.21355 16.6984 3.16243C16.485 3.13966 16.265 3.1637 16.0508 3.25096L14.9647 3.68883C15.6065 3.51137 16.2873 3.83872 16.5398 4.46912L19.4753 11.7416C19.75 12.4229 19.4213 13.1915 18.7441 13.4632L19.9767 12.9762Z" fill="white"/>
<path fill-rule="evenodd" clip-rule="evenodd" d="M11.0137 7.25815C11.6892 7.54438 11.9985 8.31864 11.7123 8.99419L8.94218 15.5131C8.65646 16.1851 7.88889 16.499 7.21642 16.2169L8.90351 16.9322C9.57907 17.2184 10.3497 16.9086 10.6396 16.2335L13.4092 9.71823C13.6954 9.04267 13.3825 8.2679 12.7105 7.98218L11.0168 7.26226L11.0137 7.25815Z" fill="white"/>
<path d="M1.54238 14.1974L8.76102 17.2645C8.89943 17.3245 9.04448 17.3633 9.18848 17.3836C9.47646 17.4242 9.77511 17.3893 10.0515 17.2777C10.4682 17.1089 10.7962 16.788 10.9723 16.3723L11.4669 15.2084C11.731 15.6789 12.1274 15.9919 12.6782 16.0696C12.9662 16.1102 13.2648 16.0752 13.5454 15.9606L20.1129 13.3112C20.9735 12.9626 21.3949 11.9794 21.0469 11.1152L18.1114 3.84274C17.943 3.42247 17.6217 3.09809 17.2064 2.91835C16.7943 2.74272 16.3321 2.73993 15.9154 2.90877L9.34786 5.55822C9.14183 5.6393 8.9688 5.77276 8.81174 5.92316L5.63203 4.57137C4.7764 4.20834 3.78378 4.60801 3.42075 5.46364L0.651125 11.9789C0.474986 12.3947 0.469099 12.8528 0.637945 13.2694C0.806792 13.6861 1.12767 14.0141 1.5434 14.1902L1.54238 14.1974ZM9.61947 6.23538L16.187 3.58593C16.4244 3.49092 16.6851 3.49098 16.9207 3.59031C17.1564 3.68964 17.3392 3.87699 17.4342 4.11435L20.3697 11.3868C20.5685 11.8775 20.3279 12.4383 19.8372 12.6371L13.2696 15.2865C12.779 15.4853 12.2207 15.2524 12.023 14.7545L11.8464 14.3147L12.5064 12.7594C12.6266 13.0003 12.8182 13.2035 13.0816 13.3141C13.1753 13.353 13.2704 13.3812 13.3712 13.3954C13.886 13.468 14.3883 13.1864 14.5916 12.7084C14.6305 12.6148 14.6586 12.5196 14.6729 12.4188C14.7455 11.9041 14.4639 11.4017 13.9823 11.1979C13.8887 11.159 13.7935 11.1309 13.6927 11.1167C13.5163 11.0918 13.3431 11.1224 13.1813 11.1767L13.7424 9.85337C14.1055 8.99773 13.7058 8.00512 12.8502 7.64209L9.59072 6.25702C9.59072 6.25702 9.60766 6.24105 9.61947 6.23538ZM13.1105 12.1984C13.1496 11.9212 13.4404 11.7603 13.6966 11.8699C13.9045 11.958 14.0134 12.201 13.9192 12.4263C13.8275 12.6337 13.5773 12.7416 13.3627 12.6489C13.1862 12.5726 13.0836 12.3892 13.11 12.202L13.1105 12.1984ZM1.31847 12.2714L4.08809 5.75605C4.26322 5.34753 4.68801 5.12108 5.10559 5.18C5.18839 5.19168 5.26966 5.21416 5.34581 5.24693L12.5609 8.31354C13.0491 8.52194 13.2743 9.08607 13.07 9.57125L10.2998 16.0902C10.2005 16.3258 10.0132 16.5086 9.77581 16.6037C9.53844 16.6987 9.27828 16.695 9.04264 16.5957L1.82399 13.5286C1.58834 13.4292 1.4055 13.2419 1.30689 13.004C1.21187 12.7667 1.21553 12.5065 1.31487 12.2709L1.31847 12.2714Z" fill="black"/>
<path d="M15.478 7.67507C15.5716 7.71399 15.6704 7.7426 15.7676 7.75632C16.2716 7.82742 16.7796 7.55764 16.988 7.06937C17.1083 6.78895 17.1088 6.47328 16.9947 6.18916C16.8806 5.90504 16.6591 5.67921 16.3787 5.55887C16.285 5.51996 16.1899 5.49185 16.0891 5.47763C15.4663 5.38976 14.8799 5.82471 14.7905 6.45828C14.7179 6.97306 14.9995 7.47539 15.4811 7.67918L15.478 7.67507ZM15.9875 6.19759C16.0235 6.20267 16.059 6.21135 16.0935 6.22723C16.1974 6.27126 16.2777 6.35236 16.318 6.45717C16.3619 6.56249 16.3606 6.67612 16.3165 6.78005C16.228 6.99151 15.9711 7.09479 15.7601 7.00261C15.5836 6.92631 15.481 6.74294 15.5074 6.55575C15.5404 6.32176 15.7576 6.16149 15.9844 6.19348L15.9875 6.19759Z" fill="black"/>
<path d="M6.12924 11.3529C6.36574 11.9407 7.03769 12.2264 7.62545 11.9899C8.21321 11.7534 8.49944 11.0779 8.26243 10.4937C8.02543 9.90956 7.35398 9.62024 6.76622 9.85674C6.18617 10.0906 5.89016 10.7575 6.12924 11.3529ZM7.03834 10.5303C7.25258 10.443 7.50212 10.548 7.58888 10.7658C7.67614 10.9801 7.57117 11.2296 7.35333 11.3164C7.14269 11.4041 6.88646 11.2946 6.80229 11.0844C6.71554 10.8666 6.81999 10.6206 7.03783 10.5339L7.03834 10.5303Z" fill="black"/>
<path d="M10.4676 10.8415C11.0517 10.6045 11.3447 9.93358 11.1046 9.34531C10.9527 8.96409 10.6052 8.69477 10.1985 8.63738C10.0005 8.60945 9.79486 8.63551 9.60835 8.70833C9.0283 8.94224 8.7328 9.60547 8.97137 10.2045C9.20787 10.7923 9.87982 11.078 10.4676 10.8415ZM9.87687 9.38138C9.94675 9.35452 10.0218 9.34308 10.0938 9.35324C10.2414 9.37406 10.3706 9.47306 10.4279 9.61332C10.5152 9.82757 10.4102 10.0771 10.1924 10.1639C9.97813 10.2511 9.72859 10.1462 9.64133 9.93191C9.55458 9.71407 9.66263 9.46864 9.87328 9.38087L9.87687 9.38138Z" fill="black"/>
<path d="M4.78374 13.1347C5.3715 12.8982 5.65722 12.2263 5.42072 11.6385C5.18681 11.0585 4.51997 10.7625 3.92451 11.0015C3.33675 11.238 3.05103 11.91 3.28753 12.4977C3.52402 13.0855 4.19598 13.3712 4.78374 13.1347ZM4.19663 11.6751C4.41447 11.5883 4.6599 11.6964 4.74716 11.9106C4.83442 12.1249 4.72946 12.3744 4.51162 12.4612C4.30148 12.5453 4.04733 12.4471 3.96108 12.2256C3.87382 12.0114 3.97879 11.7618 4.19663 11.6751Z" fill="black"/>
<path d="M7.91145 12.6949C7.32369 12.9314 7.03797 13.6033 7.27446 14.1911C7.51096 14.7789 8.18292 15.0646 8.77068 14.8281C9.35484 14.5911 9.64775 13.9201 9.40766 13.3319C9.17375 12.7518 8.50691 12.4558 7.91145 12.6949ZM8.49856 14.1545C8.28842 14.2387 8.03219 14.1291 7.94802 13.919C7.86076 13.7047 7.96983 13.4521 8.18357 13.3685C8.40552 13.2786 8.64684 13.3898 8.7341 13.604C8.82136 13.8182 8.7164 14.0678 8.49856 14.1545Z" fill="black"/>
<path d="M6.48114 9.14472C7.06119 8.91081 7.3572 8.24398 7.11812 7.64851C6.88472 7.06486 6.21378 6.77194 5.62191 7.01153C5.03415 7.24802 4.74792 7.92358 4.98493 8.50774C5.22142 9.0955 5.89698 9.38172 6.48114 9.14472ZM5.89403 7.68508C6.11238 7.59473 6.3573 7.70639 6.44507 7.91703C6.53182 8.13487 6.42737 8.38081 6.20953 8.46756C5.99579 8.55122 5.74575 8.44986 5.65899 8.23202C5.57173 8.01778 5.67669 7.76824 5.89454 7.68148L5.89403 7.68508Z" fill="black"/>
</svg>
