<svg width="230" height="45" viewBox="0 0 230 45" fill="none" xmlns="http://www.w3.org/2000/svg">
<path d="M35.8382 45C30.3542 45 26.7896 41.1772 26.7896 35.9345C26.7896 29.4357 32.1091 25.9951 44.4482 24.6299C44.2837 21.6262 43.0224 19.3871 39.2384 19.3871C36.3867 19.3871 33.5898 20.5886 30.7929 22.2816L27.8864 16.9296C31.5058 14.7451 35.8382 12.943 40.7191 12.943C48.5064 12.943 52.5098 17.5303 52.5098 26.432V44.2354H45.9289L45.3257 41.0133H45.1063C42.4191 43.307 39.348 45 35.8382 45ZM38.4706 38.7197C40.7739 38.7197 42.474 37.682 44.4482 35.7706V29.5995C36.9351 30.5279 34.4672 32.5485 34.4672 35.3337C34.4672 37.682 36.1124 38.7197 38.4706 38.7197Z" fill="url(#paint0_linear_15_216)"/>
<path d="M55.5847 44.2354V13.7075H62.1107L62.7688 17.7488H62.9333C65.5657 15.1274 68.7464 12.943 72.9143 12.943C79.4952 12.943 82.4017 17.5303 82.4017 25.176V44.2354H74.3402V26.2136C74.3402 21.4078 72.9692 19.824 70.0078 19.824C67.4851 19.824 65.8947 21.0255 63.6463 23.21V44.2354H55.5847Z" fill="url(#paint1_linear_15_216)"/>
<path d="M85.5756 44.2354V13.7075H93.6372V44.2354H85.5756ZM89.579 8.73786C86.7821 8.73786 84.9176 6.99029 84.9176 4.31432C84.9176 1.69296 86.7821 0 89.579 0C92.3759 0 94.2953 1.69296 94.2953 4.31432C94.2953 6.99029 92.3759 8.73786 89.579 8.73786Z" fill="url(#paint2_linear_15_216)"/>
<path d="M97.09 44.2354V13.7075H103.616L104.274 17.7488H104.439C107.016 15.1274 109.868 12.943 113.816 12.943C118.258 12.943 120.836 14.8544 122.262 18.2403C125.114 15.3459 128.075 12.943 132.078 12.943C138.604 12.943 141.566 17.5303 141.566 25.176V44.2354H133.504V26.2136C133.504 21.4078 132.188 19.824 129.227 19.824C127.472 19.824 125.552 20.9163 123.359 23.21V44.2354H115.297V26.2136C115.297 21.4078 113.926 19.824 110.965 19.824C109.265 19.824 107.236 20.9163 105.152 23.21V44.2354H97.09Z" fill="url(#paint3_linear_15_216)"/>
<path d="M157.64 45C149.908 45 142.888 39.1019 142.888 28.9988C142.888 18.841 149.908 12.943 157.64 12.943C165.318 12.943 172.338 18.841 172.338 28.9988C172.338 39.1019 165.318 45 157.64 45ZM157.64 38.5012C161.808 38.5012 164.112 34.733 164.112 28.9988C164.112 23.2099 161.808 19.4964 157.64 19.4964C153.418 19.4964 151.114 23.2099 151.114 28.9988C151.114 34.733 153.418 38.5012 157.64 38.5012Z" fill="url(#paint4_linear_15_216)"/>
<path d="M186.828 45C179.096 45 172.076 39.1019 172.076 28.9988C172.076 18.841 179.096 12.943 186.828 12.943C194.506 12.943 201.525 18.841 201.525 28.9988C201.525 39.1019 194.506 45 186.828 45ZM186.828 38.5012C190.996 38.5012 193.299 34.733 193.299 28.9988C193.299 23.2099 190.996 19.4964 186.828 19.4964C182.605 19.4964 180.302 23.2099 180.302 28.9988C180.302 34.733 182.605 38.5012 186.828 38.5012Z" fill="url(#paint5_linear_15_216)"/>
<path d="M203.183 44.2354V13.7075H209.709L210.367 17.7488H210.532C213.164 15.1274 216.345 12.943 220.513 12.943C227.093 12.943 230 17.5303 230 25.176V44.2354H221.938V26.2136C221.938 21.4078 220.567 19.824 217.606 19.824C215.083 19.824 213.493 21.0255 211.245 23.21V44.2354H203.183Z" fill="url(#paint6_linear_15_216)"/>
<path fill-rule="evenodd" clip-rule="evenodd" d="M10.0433 28.9621C10.0433 35.6231 5.85641 41.2839 2.54396e-06 43.4511C1.64242 44.0593 3.40915 44.4078 5.26095 44.4078C13.7133 44.4078 20.5652 37.492 20.5652 28.9621C20.5652 20.4312 13.7132 13.5164 5.26095 13.5164C3.40914 13.5164 1.64241 13.8649 0 14.4731C5.85641 16.6403 10.0433 22.3002 10.0433 28.9621Z" fill="url(#paint7_linear_15_216)"/>
<defs>
<linearGradient id="paint0_linear_15_216" x1="-1.04023e-06" y1="11.8097" x2="233.461" y2="45.3626" gradientUnits="userSpaceOnUse">
<stop stop-color="white"/>
<stop offset="1" stop-color="#5F65D1"/>
</linearGradient>
<linearGradient id="paint1_linear_15_216" x1="-1.04023e-06" y1="11.8097" x2="233.461" y2="45.3626" gradientUnits="userSpaceOnUse">
<stop stop-color="white"/>
<stop offset="1" stop-color="#5F65D1"/>
</linearGradient>
<linearGradient id="paint2_linear_15_216" x1="-1.04023e-06" y1="11.8097" x2="233.461" y2="45.3626" gradientUnits="userSpaceOnUse">
<stop stop-color="white"/>
<stop offset="1" stop-color="#5F65D1"/>
</linearGradient>
<linearGradient id="paint3_linear_15_216" x1="-1.04023e-06" y1="11.8097" x2="233.461" y2="45.3626" gradientUnits="userSpaceOnUse">
<stop stop-color="white"/>
<stop offset="1" stop-color="#5F65D1"/>
</linearGradient>
<linearGradient id="paint4_linear_15_216" x1="-1.04023e-06" y1="11.8097" x2="233.461" y2="45.3626" gradientUnits="userSpaceOnUse">
<stop stop-color="white"/>
<stop offset="1" stop-color="#5F65D1"/>
</linearGradient>
<linearGradient id="paint5_linear_15_216" x1="-1.04023e-06" y1="11.8097" x2="233.461" y2="45.3626" gradientUnits="userSpaceOnUse">
<stop stop-color="white"/>
<stop offset="1" stop-color="#5F65D1"/>
</linearGradient>
<linearGradient id="paint6_linear_15_216" x1="-1.04023e-06" y1="11.8097" x2="233.461" y2="45.3626" gradientUnits="userSpaceOnUse">
<stop stop-color="white"/>
<stop offset="1" stop-color="#5F65D1"/>
</linearGradient>
<linearGradient id="paint7_linear_15_216" x1="-1.04023e-06" y1="11.8097" x2="233.461" y2="45.3626" gradientUnits="userSpaceOnUse">
<stop stop-color="white"/>
<stop offset="1" stop-color="#5F65D1"/>
</linearGradient>
</defs>
</svg>
